<svg xmlns="http://www.w3.org/2000/svg" viewBox="0 0 460 180" width="460" height="180" role="img" aria-label="thevibedude logo">
<defs>
  <clipPath id="hexClipStatic">
    <polygon points="130,0 225.17,52.5 225.17,157.5 130,210 34.83,157.5 34.83,52.5" transform="translate(0,-30)" />
  </clipPath>
</defs>

<g>
  <g transform="translate(130, 75)">
    <!-- Hex fill -->
    <polygon
      points="0,-75 64.95,-37.5 64.95,37.5 0,75 -64.95,37.5 -64.95,-37.5"
      fill="#12080A"
    />

    <!-- Outer ring -->
    <polygon
      points="0,-75 64.95,-37.5 64.95,37.5 0,75 -64.95,37.5 -64.95,-37.5"
      fill="none"
      stroke="#D85A30"
      stroke-width="5.5"
      stroke-linejoin="round"
    />

    <!-- Inner echo ring -->
    <polygon
      points="0,-69 60,-34.5 60,34.5 0,69 -60,34.5 -60,-34.5"
      fill="none"
      stroke="#F0997B"
      stroke-width="1.5"
      stroke-linejoin="round"
      opacity="0.4"
    />

    <!-- Binary texture -->
    <g opacity="0.13" clip-path="url(#hexClipStatic)" transform="translate(-130,-105)">
      <text font-family="monospace" font-size="10" fill="#F0997B" x="50" y="30">10110010 01101001</text>
      <text font-family="monospace" font-size="10" fill="#F0997B" x="45" y="44">01001101 10110100</text>
      <text font-family="monospace" font-size="10" fill="#F0997B" x="55" y="58">11010010 01101100</text>
      <text font-family="monospace" font-size="10" fill="#F0997B" x="40" y="72">10010110 01011010</text>
      <text font-family="monospace" font-size="10" fill="#F0997B" x="50" y="86">01101001 10110010</text>
      <text font-family="monospace" font-size="10" fill="#F0997B" x="45" y="100">11001010 01011001</text>
      <text font-family="monospace" font-size="10" fill="#F0997B" x="55" y="114">10110100 11010010</text>
      <text font-family="monospace" font-size="10" fill="#F0997B" x="48" y="128">01001011 10010110</text>
    </g>

    <!-- Glitch slash -->
    <line
      x1="-51" y1="51"
      x2="63" y2="-51"
      stroke="#F0997B"
      stroke-width="6"
      stroke-linecap="round"
      opacity="0.45"
      transform="translate(12, 12)"
    />

    <!-- Main slash -->
    <line
      x1="-51" y1="51"
      x2="63" y2="-51"
      stroke="#E8693A"
      stroke-width="13"
      stroke-linecap="round"
    />

    <!-- Fragment 1 -->
    <line
      x1="-52" y1="36"
      x2="-35" y2="50"
      stroke="#F5C4B3"
      stroke-width="4.5"
      stroke-linecap="round"
      opacity="0.57"
    />

    <!-- Fragment 2 -->
    <line
      x1="35" y1="-45"
      x2="55" y2="-32"
      stroke="#D85A30"
      stroke-width="4"
      stroke-linecap="round"
      opacity="0.6"
    />
  </g>

  <!-- Wordmark -->
  <g transform="translate(220, 75)">
    <text
      font-family="system-ui, Arial, sans-serif"
      font-weight="400"
      font-size="26"
      fill="#F0997B"
      dominant-baseline="middle"
      x="0"
      y="-8"
      letter-spacing="6"
    >thevibedude</text>

    <rect x="0" y="6" width="222" height="2.5" fill="#E8693A" />
    <rect x="0" y="11" width="89" height="1" fill="#F0997B" opacity="0.5" />
  </g>
</g>
</svg>
